# xmcd CD database file
#
# Track frame offsets:
#	150
#	2740
#	22839
#	42408
#	80853
#	117445
#	146970
#	169057
#	192705
#	228227
#	262628
#	276157
#	311537
#	326430
#
# Disc length: 4756 seconds
#
# Revision: 0
# Processed by: cddbd v1.5.2PL0 Copyright (c) Steve Scherf et al.
# Submitted via: Feurio! 1.68 - http://www.feurio.com
#
DISCID=bf12920e
DTITLE=Caroline Aiken - Music Star Dec 15 2007 Edit
DYEAR=1900
DGENRE=
TTITLE0=Intro
TTITLE1=Love Ain't Going Nowhere
TTITLE2=Haul Off and Kiss Me
TTITLE3=Left Wet
TTITLE4=Dixie Chicken
TTITLE5=Fourty Thousand Headmen
TTITLE6=Fragile
TTITLE7=Day By Day
TTITLE8=Song For Page
TTITLE9=Sing the Blues
TTITLE10=Turtle Dove
TTITLE11=We're Having a War
TTITLE12=Rebirth
TTITLE13=Mission of Angels
EXTD=
EXTT0=
EXTT1=
EXTT2=
EXTT3=
EXTT4=
EXTT5=
EXTT6=
EXTT7=
EXTT8=
EXTT9=
EXTT10=
EXTT11=
EXTT12=
EXTT13=
PLAYORDER=
